[h264 @ 0x558e62088180] Reinit context to 848x480, pix_fmt: yuv420p
Input #0, mov,mp4,m4a,3gp,3g2,mj2, from '/var/www/html/project/media/video/original/VID-20240229-WA0078.mp4':
  Metadata:
    major_brand     : mp42
    minor_version   : 0
    compatible_brands: mp42isom
  Duration: 00:00:06.93, start: 0.000000, bitrate: 1690 kb/s
    Stream #0:0(und): Video: h264 (High), 1 reference frame (avc1 / 0x31637661), yuv420p(tv, bt470bg/bt470bg/smpte170m, left), 848x478 (848x480), 1587 kb/s, 30.01 fps, 30.01 tbr, 90k tbn, 180k tbc (default)
    Stream #0:1(und): Audio: aac (LC) (mp4a / 0x6134706D), 48000 Hz, stereo, fltp, 96 kb/s (default)
Input #1, png_pipe, from '/var/www/html/project/static/images/templates/logo.png':
  Duration: N/A, bitrate: N/A
    Stream #1:0: Video: png, 1 reference frame, rgba(pc), 1920x1080 [SAR 2835:2835 DAR 16:9], 25 tbr, 25 tbn, 25 tbc
[h264 @ 0x558e620b13c0] Reinit context to 1280x720, pix_fmt: yuv420p
Input #2, mov,mp4,m4a,3gp,3g2,mj2, from '/var/www/html/project/static/images/templates/Codino.mp4':
  Metadata:
    major_brand     : mp42
    minor_version   : 1
    compatible_brands: isommp41mp42
    creation_time   : 2021-07-11T07:02:58.000000Z
  Duration: 00:00:02.00, start: 0.000000, bitrate: 1007 kb/s
    Stream #2:0(ita): Audio: aac (LC) (mp4a / 0x6134706D), 44100 Hz, stereo, fltp, 102 kb/s (default)
    Metadata:
      creation_time   : 2021-07-11T07:02:58.000000Z
      handler_name    : Core Media Audio
    Stream #2:1(und): Video: h264 (High), 1 reference frame (avc1 / 0x31637661), yuv420p(tv, bt709, progressive, left), 1280x720 [SAR 1:1 DAR 16:9], 813 kb/s, 25 fps, 25 tbr, 25k tbn, 50k tbc (default)
    Metadata:
      creation_time   : 2021-07-11T07:02:58.000000Z
      handler_name    : Core Media Video
[Parsed_scale_0 @ 0x558e620b26c0] w:1280 h:720 flags:'bilinear' interl:0
[Parsed_scale_2 @ 0x558e62211740] w:1280 h:720 flags:'bilinear' interl:0
[Parsed_scale_4 @ 0x558e621c1b80] w:1280 h:720 flags:'bilinear' interl:0
Stream mapping:
  Stream #0:0 (h264) -> scale
  Stream #0:1 (aac) -> concat:in0:a0
  Stream #1:0 (png) -> scale
  Stream #2:0 (aac) -> concat:in1:a0
  Stream #2:1 (h264) -> scale
  concat:out:v0 -> Stream #0:0 (libx264)
  concat:out:a0 -> Stream #0:1 (aac)
Press [q] to stop, [?] for help
[h264 @ 0x558e620b43c0] Reinit context to 848x480, pix_fmt: yuv420p
[h264 @ 0x558e6253e980] Reinit context to 1280x720, pix_fmt: yuv420p
[Parsed_scale_0 @ 0x558e63061580] w:1280 h:720 flags:'bilinear' interl:0
[Parsed_scale_2 @ 0x558e630662c0] w:1280 h:720 flags:'bilinear' interl:0
[Parsed_scale_4 @ 0x558e6306ab80] w:1280 h:720 flags:'bilinear' interl:0
[graph 0 input from stream 0:0 @ 0x558e6306f2c0] w:848 h:478 pixfmt:yuv420p tb:1/90000 fr:90000/2999 sar:0/1 sws_param:flags=2
[graph 0 input from stream 1:0 @ 0x558e63070380] w:1920 h:1080 pixfmt:rgba tb:1/25 fr:25/1 sar:2835/2835 sws_param:flags=2
[graph 0 input from stream 2:1 @ 0x558e63071400] w:1280 h:720 pixfmt:yuv420p tb:1/25000 fr:25/1 sar:1/1 sws_param:flags=2
[graph_0_in_0_1 @ 0x558e630723c0] tb:1/48000 samplefmt:fltp samplerate:48000 chlayout:0x3
[graph_0_in_2_0 @ 0x558e63073500] tb:1/44100 samplefmt:fltp samplerate:44100 chlayout:0x3
[Parsed_concat_7 @ 0x558e6306d340] auto-inserting filter 'auto_resampler_0' between the filter 'graph_0_in_2_0' and the filter 'Parsed_concat_7'
[Parsed_scale_0 @ 0x558e63061580] w:848 h:478 fmt:yuv420p sar:0/1 -> w:1280 h:720 fmt:yuv420p sar:0/1 flags:0x2
[Parsed_setsar_1 @ 0x558e630617c0] w:1280 h:720 sar:0/1 dar:16/9 -> sar:1/1 dar:16/9
[Parsed_scale_2 @ 0x558e630662c0] w:1920 h:1080 fmt:rgba sar:2835/2835 -> w:1280 h:720 fmt:yuva420p sar:1/1 flags:0x2
[Parsed_setsar_3 @ 0x558e63069ec0] w:1280 h:720 sar:1/1 dar:16/9 -> sar:1/1 dar:16/9
[Parsed_overlay_6 @ 0x558e6306c200] main w:1280 h:720 fmt:yuv420p overlay w:1280 h:720 fmt:yuva420p
[Parsed_overlay_6 @ 0x558e6306c200] [framesync @ 0x558e6306c328] Selected 1/90000 time base
[Parsed_overlay_6 @ 0x558e6306c200] [framesync @ 0x558e6306c328] Sync level 2
[Parsed_scale_4 @ 0x558e6306ab80] w:1280 h:720 fmt:yuv420p sar:1/1 -> w:1280 h:720 fmt:yuv420p sar:1/1 flags:0x2
[Parsed_setsar_5 @ 0x558e6306b640] w:1280 h:720 sar:1/1 dar:16/9 -> sar:1/1 dar:16/9
[auto_resampler_0 @ 0x558e6307a9c0] ch:2 chl:stereo fmt:fltp r:44100Hz -> ch:2 chl:stereo fmt:fltp r:48000Hz
[libx264 @ 0x558e62181c80] using SAR=1/1
[libx264 @ 0x558e62181c80] using cpu capabilities: MMX2 SSE2Fast SSSE3 SSE4.2 AVX FMA3 BMI2 AVX2
[libx264 @ 0x558e62181c80] profile High, level 3.2
[libx264 @ 0x558e62181c80] 264 - core 155 r2917 0a84d98 - H.264/MPEG-4 AVC codec - Copyleft 2003-2018 - http://www.videolan.org/x264.html - options: cabac=1 ref=1 deblock=1:0:0 analyse=0x3:0x113 me=hex subme=2 psy=1 psy_rd=1.00:0.00 mixed_ref=0 me_range=16 chroma_me=1 trellis=0 8x8dct=1 cqm=0 deadzone=21,11 fast_pskip=1 chroma_qp_offset=0 threads=22 lookahead_threads=5 sliced_threads=0 nr=0 decimate=1 interlaced=0 bluray_compat=0 constrained_intra=0 bframes=3 b_pyramid=2 b_adapt=1 b_bias=0 direct=1 weightb=1 open_gop=0 weightp=1 keyint=250 keyint_min=25 scenecut=40 intra_refresh=0 rc_lookahead=10 rc=crf mbtree=1 crf=18.0 qcomp=0.60 qpmin=0 qpmax=69 qpstep=4 ip_ratio=1.40 aq=1:1.00
Output #0, mp4, to '/var/www/html/project/media/video/watermarks/VID-20240229-WA0078.mp4':
  Metadata:
    major_brand     : mp42
    minor_version   : 0
    compatible_brands: mp42isom
    encoder         : Lavf58.29.100
    Stream #0:0: Video: h264 (libx264), 1 reference frame (avc1 / 0x31637661), yuv420p(progressive), 1280x720 [SAR 1:1 DAR 16:9], q=-1--1, 30.01 fps, 90k tbn, 30.01 tbc (default)
    Metadata:
      encoder         : Lavc58.54.100 libx264
    Side data:
      cpb: bitrate max/min/avg: 0/0/0 buffer size: 0 vbv_delay: -1
    Stream #0:1: Audio: aac (LC) (mp4a / 0x6134706D), 48000 Hz, stereo, fltp, delay 1024, 128 kb/s (default)
    Metadata:
      encoder         : Lavc58.54.100 aac
[Parsed_overlay_6 @ 0x558e6306c200] [framesync @ 0x558e6306c328] Sync level 0
[Parsed_concat_7 @ 0x558e6306d340] EOF on in0:v0, 1 streams left in segment.
[Parsed_concat_7 @ 0x558e6306d340] EOF on in0:a0, 0 streams left in segment.
[Parsed_concat_7 @ 0x558e6306d340] Segment finished at pts=6931022
[Parsed_concat_7 @ 0x558e6306d340] EOF on in1:v0, 1 streams left in segment.
[Parsed_concat_7 @ 0x558e6306d340] EOF on in1:a0, 0 streams left in segment.
[Parsed_concat_7 @ 0x558e6306d340] Segment finished at pts=8949709
No more output streams to write to, finishing.
frame=  258 fps= 79 q=-1.0 Lsize=   11735kB time=00:00:08.96 bitrate=10728.9kbits/s speed=2.73x    
[AVIOContext @ 0x558e62086440] Statistics: 0 seeks, 7 writeouts
video:11593kB audio:131kB subtitle:0kB other streams:0kB global headers:0kB muxing overhead: 0.090784%
Input file #0 (/var/www/html/project/media/video/original/VID-20240229-WA0078.mp4):
  Input stream #0:0 (video): 208 packets read (1375232 bytes); 208 frames decoded; 
  Input stream #0:1 (audio): 320 packets read (82573 bytes); 320 frames decoded (327680 samples); 
  Total: 528 packets (1457805 bytes) demuxed
Input file #1 (/var/www/html/project/static/images/templates/logo.png):
  Input stream #1:0 (video): 1 packets read (111578 bytes); 1 frames decoded; 
  Total: 1 packets (111578 bytes) demuxed
Input file #2 (/var/www/html/project/static/images/templates/Codino.mp4):
  Input stream #2:0 (audio): 89 packets read (26579 bytes); 87 frames decoded (89024 samples); 
  Input stream #2:1 (video): 50 packets read (203365 bytes); 50 frames decoded; 
  Total: 139 packets (229944 bytes) demuxed
Output file #0 (/var/www/html/project/media/video/watermarks/VID-20240229-WA0078.mp4):
  Output stream #0:0 (video): 258 frames encoded; 258 packets muxed (11870790 bytes); 
  Output stream #0:1 (audio): 420 frames encoded (429586 samples); 421 packets muxed (134628 bytes); 
  Total: 679 packets (12005418 bytes) muxed
[AVIOContext @ 0x558e620c5500] Statistics: 2 seeks, 49 writeouts
[libx264 @ 0x558e62181c80] frame I:2     Avg QP:11.80  size:152360
[libx264 @ 0x558e62181c80] frame P:99    Avg QP:18.85  size: 80414
[libx264 @ 0x558e62181c80] frame B:157   Avg QP:24.04  size: 22958
[libx264 @ 0x558e62181c80] consecutive B-frames: 15.9%  7.8%  3.5% 72.9%
[libx264 @ 0x558e62181c80] mb I  I16..4: 50.5%  0.5% 49.0%
[libx264 @ 0x558e62181c80] mb P  I16..4:  1.0%  0.1%  0.2%  P16..4: 35.8% 13.7% 17.5%  0.0%  0.0%    skip:31.6%
[libx264 @ 0x558e62181c80] mb B  I16..4:  0.1%  0.0%  0.0%  B16..8: 21.5% 15.2%  6.7%  direct:15.9%  skip:40.7%  L0:33.2% L1:36.8% BI:30.1%
[libx264 @ 0x558e62181c80] 8x8 transform intra:4.2% inter:32.4%
[libx264 @ 0x558e62181c80] coded y,uvDC,uvAC intra: 38.2% 25.6% 10.0% inter: 38.3% 5.1% 0.6%
[libx264 @ 0x558e62181c80] i16 v,h,dc,p: 87%  6%  7%  0%
[libx264 @ 0x558e62181c80] i8 v,h,dc,ddl,ddr,vr,hd,vl,hu: 18% 23% 42%  2%  4%  3%  3%  2%  3%
[libx264 @ 0x558e62181c80] i4 v,h,dc,ddl,ddr,vr,hd,vl,hu: 14% 14% 12%  8% 11%  9% 10%  9% 12%
[libx264 @ 0x558e62181c80] i8c dc,h,v,p: 75% 14%  9%  2%
[libx264 @ 0x558e62181c80] Weighted P-Frames: Y:7.1% UV:0.0%
[libx264 @ 0x558e62181c80] kb/s:10633.49
[aac @ 0x558e621c4600] Qavg: 6865.061
[AVIOContext @ 0x558e6208f3c0] Statistics: 1496713 bytes read, 2 seeks
[AVIOContext @ 0x558e62225180] Statistics: 111578 bytes read, 0 seeks
[AVIOContext @ 0x558e620c6a40] Statistics: 1530915 bytes read, 42 seeks
